<svg id="Capa_1" enable-background="new 0 0 512 512" height="512" viewBox="0 0 512 512" width="512" xmlns="http://www.w3.org/2000/svg"><g><path d="m333.748 147.584c-3.153-26.219-12.709-51.762-27.635-73.867s-35.047-40.514-58.189-53.237c-17.088-9.395-35.314-15.583-54.426-18.512l-20.001 232.822 20.001 262.501c18.103-11.04 32.634-27.779 40.974-48.479l88.177-218.873c10.734-26.641 14.467-54.349 11.099-82.355z" fill="#ffbeaa"/><path d="m167.388 0c-92.298 0-167.388 75.09-167.388 167.388v5.001l40.002 206.404v32.317c0 55.63 45.259 100.889 100.89 100.889 19.067 0 37.14-5.276 52.607-14.709v-495.321c-8.535-1.308-17.245-1.969-26.111-1.969z" fill="#ffdecf"/><path d="m437.02 437.019-21.213-21.213c42.685-42.686 66.193-99.439 66.193-159.806s-23.508-117.12-66.193-159.806l21.213-21.213c48.352 48.352 74.98 112.639 74.98 181.019s-26.628 132.667-74.98 181.019z" fill="#ffde55"/><path d="m383.986 383.986-21.213-21.213c28.47-28.47 44.149-66.39 44.149-106.773s-15.68-78.303-44.149-106.773l21.213-21.213c70.573 70.571 70.573 185.401 0 255.972z" fill="#ffde55"/><path d="m256.388 107.293c-15.269-22.613-37.413-37.967-62.889-44.186l-10.001 15.893 10.001 15.413c15.28 5.393 28.508 15.572 38.026 29.669 14.625 21.66 17.411 47.985 7.645 72.225l-26.347 65.397 27.827 11.211 26.347-65.397c13.551-33.638 9.685-70.168-10.609-100.225z" fill="#e09380"/><path d="m167.388 60c-59.214 0-107.388 48.174-107.388 107.388v20.035h30v-20.035c0-11.188 2.406-21.819 6.697-31.431 21.07 9.529 35.771 30.741 35.771 55.33 0 14.902-5.451 29.23-15.349 40.346l22.405 19.95c14.795-16.616 22.943-38.029 22.943-60.296 0-34.664-19.558-64.829-48.208-80.088 13.873-13.125 32.57-21.199 53.129-21.199 9.125 0 17.913 1.519 26.11 4.413v-31.306c-8.384-2.047-17.129-3.107-26.11-3.107z" fill="#ffbeaa"/><path d="m53.576 392.231h-53.576v-30l20.001-79.921-20.001-79.921v-30h53.576c60.61 0 109.921 49.311 109.921 109.921 0 60.611-49.311 109.921-109.921 109.921z" fill="#fff5f5"/><path d="m0 362.231h53.576c44.068 0 79.921-35.853 79.921-79.921 0-44.069-35.853-79.921-79.921-79.921h-53.576z" fill="#e1ebf0"/></g></svg>