<svg id="Capa_1" enable-background="new 0 0 502 502" height="512" viewBox="0 0 502 502" width="512" xmlns="http://www.w3.org/2000/svg" xmlns:xlink="http://www.w3.org/1999/xlink"><linearGradient id="lg1"><stop offset="0" stop-color="#f4d952"/><stop offset="1" stop-color="#f9edaf"/></linearGradient><linearGradient id="SVGID_1_" gradientUnits="userSpaceOnUse" x1="113.875" x2="113.875" xlink:href="#lg1" y1="340.274" y2="44.432"/><linearGradient id="lg2"><stop offset="0" stop-color="#4e5660"/><stop offset="1" stop-color="#64768d"/></linearGradient><linearGradient id="SVGID_2_" gradientUnits="userSpaceOnUse" x1="36.275" x2="212.781" xlink:href="#lg2" y1="94.834" y2="94.834"/><linearGradient id="SVGID_3_" gradientUnits="userSpaceOnUse" x1="113.875" x2="113.875" xlink:href="#lg2" y1="454.965" y2="228.796"/><linearGradient id="lg3"><stop offset="0" stop-color="#74d2e8"/><stop offset="1" stop-color="#baeaf5"/></linearGradient><linearGradient id="SVGID_4_" gradientTransform="matrix(0 -1 1 0 -228.564 456.314)" gradientUnits="userSpaceOnUse" x1="41.202" x2="186.548" xlink:href="#lg3" y1="342.439" y2="342.439"/><linearGradient id="SVGID_5_" gradientUnits="userSpaceOnUse" x1="388.125" x2="388.125" xlink:href="#lg1" y1="340.274" y2="44.432"/><linearGradient id="SVGID_6_" gradientUnits="userSpaceOnUse" x1="338.805" x2="438.523" xlink:href="#lg2" y1="94.834" y2="94.834"/><linearGradient id="SVGID_7_" gradientUnits="userSpaceOnUse" x1="388.125" x2="388.125" xlink:href="#lg2" y1="454.965" y2="228.796"/><linearGradient id="SVGID_8_" gradientTransform="matrix(0 -1 -1 0 730.564 662.439)" gradientUnits="userSpaceOnUse" x1="247.327" x2="392.673" xlink:href="#lg3" y1="342.439" y2="342.439"/><linearGradient id="SVGID_9_" gradientUnits="userSpaceOnUse" x1="251" x2="251" y1="236.722" y2="117.345"><stop offset="0" stop-color="#ec6f80"/><stop offset="1" stop-color="#eca0aa"/></linearGradient><linearGradient id="SVGID_10_" gradientUnits="userSpaceOnUse" x1="251" x2="251" xlink:href="#lg2" y1="284.725" y2="213.523"/><g><path d="m211.509 122.084c7.044 71.098 16.241 172.99 16.241 220.355h-227.75c0-50.298 26.68-162.084 45.077-233.188 9.682-37.419 43.424-63.565 82.076-63.565 43.578 0 80.06 33.032 84.356 76.398z" fill="url(#SVGID_1_)"/><path d="m211.509 122.084c-4.297-43.366-40.778-76.398-84.357-76.398-38.652 0-72.394 26.146-82.076 63.565-2.785 10.762-5.759 22.46-8.802 34.732 15.499-34.569 50.199-58.656 90.536-58.656 36.752 0 68.834 19.99 85.97 49.689-.429-4.406-.854-8.724-1.271-12.932z" fill="url(#SVGID_2_)"/><circle cx="113.875" cy="342.439" fill="url(#SVGID_3_)" r="113.875"/><circle cx="113.875" cy="342.439" fill="url(#SVGID_4_)" r="72.673"/><path d="m290.491 122.084c-7.044 71.098-16.241 172.99-16.241 220.355h227.75c0-50.298-26.68-162.084-45.077-233.188-9.682-37.419-43.424-63.565-82.076-63.565-43.578 0-80.06 33.032-84.356 76.398z" fill="url(#SVGID_5_)"/><path d="m290.491 122.084c4.297-43.366 40.778-76.398 84.357-76.398 38.651 0 72.394 26.146 82.076 63.565 2.784 10.762 5.759 22.46 8.802 34.732-15.499-34.569-50.199-58.656-90.536-58.656-36.752 0-68.834 19.99-85.969 49.689.428-4.406.853-8.724 1.27-12.932z" fill="url(#SVGID_6_)"/><circle cx="388.125" cy="342.439" fill="url(#SVGID_7_)" r="113.875"/><circle cx="388.125" cy="342.439" fill="url(#SVGID_8_)" r="72.673"/><path d="m267.416 253.599c5.299 0 10.425-1.961 14.316-5.559 17.56-16.238 49.738-36.865 49.738-70.163 0-17.918-7.372-45.609-15.109-58.232-7.737-12.624-38.282-22.397-65.36-22.397s-57.623 9.773-65.36 22.397-15.109 40.315-15.109 58.232c0 33.298 32.178 53.925 49.738 70.163 3.891 3.598 9.017 5.559 14.316 5.559z" fill="url(#SVGID_9_)"/><circle cx="251" cy="239.527" fill="url(#SVGID_10_)" r="32.12"/><path d="m113.875 415.112c5.584 0 11.019-.634 16.239-1.831 9.335-2.14 14.5-12.17 10.848-21.024-2.866-6.948-10.324-10.933-17.644-9.227-3.035.707-6.196 1.082-9.443 1.082-15.391 0-28.857-8.388-36.073-20.832-3.502-6.039-10.591-9.008-17.343-7.238l-.025.007c-9.828 2.576-14.647 13.801-9.577 22.605 12.547 21.789 36.069 36.458 63.018 36.458z" fill="#17c5d9"/><g fill="#dff7fa"><path d="m378.523 305.818c-4.651 0-8.817-3.263-9.786-7.997-1.107-5.411 2.382-10.695 7.792-11.802 3.794-.776 7.695-1.17 11.596-1.17 5.522 0 10 4.477 10 10 0 5.522-4.478 10-10 10-2.557 0-5.109.257-7.586.764-.677.139-1.351.205-2.016.205z"/><path d="m435.714 352.44c-5.522 0-10-4.478-10-10 0-9.637-3.641-18.799-10.252-25.801-3.792-4.015-3.61-10.344.404-14.136 4.017-3.794 10.347-3.61 14.137.404 10.132 10.729 15.711 24.769 15.711 39.532 0 5.523-4.478 10.001-10 10.001z"/></g></g></svg>